<?xml version="1.0" encoding="UTF-8" standalone="no"?>
<!-- Created with Inkscape (http://www.inkscape.org/) -->

<svg
   version="1.0"
   id="svg2"
   width="391.34698pt"
   height="147.4507pt"
   xmlns="http://www.w3.org/2000/svg"
   xmlns:svg="http://www.w3.org/2000/svg"
   xmlns:rdf="http://www.w3.org/1999/02/22-rdf-syntax-ns#"
   xmlns:cc="http://creativecommons.org/ns#"
   xmlns:dc="http://purl.org/dc/elements/1.1/">
  <metadata
     id="metadata371">
    <rdf:RDF>
      <cc:Work
         rdf:about="">
        <dc:format>image/svg+xml</dc:format>
        <dc:type
           rdf:resource="http://purl.org/dc/dcmitype/StillImage" />
      </cc:Work>
    </rdf:RDF>
  </metadata>
  <defs
     id="defs4" />
  <g
     id="g9"
     transform="translate(177.8728,296.66519)">
    <text
       xml:space="preserve"
       style="font-weight:bold;font-size:53.3333px;line-height:1.25;font-family:Arial;-inkscape-font-specification:'Arial, Bold';font-variant-ligatures:none;text-align:center;text-anchor:middle;fill:#106090;fill-opacity:1"
       x="178.5847"
       y="-175.96831"
       id="text1"><tspan
         id="tspan1"
         x="178.5847"
         y="-175.96831"
         style="font-size:53.3333px;fill:#106090;fill-opacity:1">SimpleBench</tspan></text>
    <path
       style="fill:#106090;fill-opacity:1;stroke-width:0.907784"
       d="m -92.954321,-236.59526 c -4.160968,0.0193 -8.134599,0.37421 -11.630979,0.99289 -10.29992,1.81966 -12.16998,5.62836 -12.16999,12.65224 v 9.27642 h 24.339966 v 3.09214 h -24.339966 -9.13457 c -7.07387,0 -13.26796,4.25181 -15.20539,12.34019 -2.2348,9.27117 -2.33392,15.05653 0,24.73712 1.73018,7.20585 5.86206,12.34019 12.93593,12.34019 h 8.36863 v -11.12036 c 0,-8.0338 6.95104,-15.12027 15.20539,-15.12028 h 24.311588 c 6.767485,0 12.169983,-5.57212 12.16998,-12.36855 v -23.17687 c 0,-6.59626 -5.564698,-11.55135 -12.16998,-12.65224 -4.181242,-0.69602 -8.519642,-1.01222 -12.680609,-0.99289 z m -13.162869,7.46086 c 2.51415,0 4.56729,2.08667 4.56729,4.65239 0,2.55662 -2.05314,4.62402 -4.56729,4.62402 -2.52316,0 -4.56729,-2.0674 -4.56729,-4.62402 0,-2.56572 2.04413,-4.65239 4.56729,-4.65239 z"
       id="path1948" />
    <path
       style="fill:#ffcd30;fill-opacity:1;stroke-width:0.907784"
       d="m -65.068329,-210.58157 v 10.80831 c 0,8.37953 -7.104223,15.43232 -15.205383,15.43233 H -104.5853 c -6.65936,0 -12.16998,5.6995 -12.16999,12.36855 v 23.17686 c 0,6.59627 5.73592,10.47613 12.16999,12.36856 7.704659,2.26548 15.093028,2.67491 24.311588,0 6.127683,-1.77416 12.169983,-5.34467 12.16998,-12.36856 v -9.27641 h -24.311592 v -3.09214 h 24.311592 12.169984 c 7.073872,0 9.709886,-4.93418 12.169972,-12.34019 2.541187,-7.62438 2.433061,-14.95645 0,-24.73712 -1.748192,-7.04208 -5.087104,-12.34019 -12.169972,-12.34019 z m -13.673498,58.69392 c 2.523166,0 4.567289,2.0674 4.567289,4.62402 -2e-6,2.56572 -2.044126,4.6524 -4.567289,4.6524 -2.514153,0 -4.567288,-2.08668 -4.567288,-4.6524 1e-6,-2.55662 2.053132,-4.62402 4.567288,-4.62402 z"
       id="path1950" />
    <rect
       style="fill:#106090;fill-opacity:1;stroke:#106090;stroke-width:8.15015;stroke-linecap:round;stroke-linejoin:round;stroke-dasharray:none;stroke-opacity:1"
       id="rect2"
       width="14.704339"
       height="13.921232"
       x="-206.73697"
       y="-164.06744"
       transform="rotate(45)" />
    <circle
       style="fill:none;fill-opacity:1;stroke:#106090;stroke-width:17.276;stroke-dasharray:none;stroke-opacity:1"
       id="path1"
       cx="-92.353462"
       cy="-185.58362"
       r="76.881348" />
    <rect
       style="fill:#306998;fill-opacity:1;stroke:#106090;stroke-width:14.1538;stroke-linecap:round;stroke-linejoin:round;stroke-dasharray:none;stroke-opacity:1"
       id="rect3"
       width="34.639839"
       height="1.5204278"
       x="-109.20743"
       y="-289.58829" />
    <rect
       style="fill:#306998;fill-opacity:1;stroke:#106090;stroke-width:16.7376;stroke-linecap:round;stroke-linejoin:round;stroke-dasharray:none;stroke-opacity:1"
       id="rect4"
       width="0.57635665"
       height="14.334349"
       x="-91.942719"
       y="-279.14856" />
  </g>
</svg>
