<?xml version="1.0" encoding="UTF-8" standalone="no"?>
<!DOCTYPE svg PUBLIC "-//W3C//DTD SVG 1.1//EN"
 "http://www.w3.org/Graphics/SVG/1.1/DTD/svg11.dtd">
<!-- Generated by graphviz version 14.0.1 (20251006.0113)
 -->
<!-- Title: G Pages: 1 -->
<svg width="991pt" height="506pt"
 viewBox="0.00 0.00 991.00 506.00" xmlns="http://www.w3.org/2000/svg" xmlns:xlink="http://www.w3.org/1999/xlink">
<g id="graph0" class="graph" transform="scale(1 1) rotate(0) translate(4 502.18)">
<title>G</title><style>.edge>path:hover{stroke-width:8}</style>
<polygon fill="white" stroke="none" points="-4,4 -4,-502.18 987.22,-502.18 987.22,4 -4,4"/>
<!-- simplebench -->
<g id="node1" class="node">
<title>simplebench</title><style>.edge>path:hover{stroke-width:8}</style>
<polygon fill="blue" stroke="black" points="236.52,-498.18 165.77,-498.18 165.77,-462.18 236.52,-462.18 236.52,-498.18"/>
<text xml:space="preserve" text-anchor="middle" x="201.15" y="-476.3" font-family="Helvetica,sans-Serif" font-size="10.00" fill="white">simplebench</text>
</g>
<!-- simplebench_case -->
<g id="node2" class="node">
<title>simplebench_case</title><style>.edge>path:hover{stroke-width:8}</style>
<polygon fill="blue" stroke="black" points="192.02,-282.18 118.27,-282.18 118.27,-246.18 192.02,-246.18 192.02,-282.18"/>
<text xml:space="preserve" text-anchor="middle" x="155.15" y="-265.93" font-family="Helvetica,sans-Serif" font-size="10.00" fill="white">simplebench.</text>
<text xml:space="preserve" text-anchor="middle" x="155.15" y="-254.68" font-family="Helvetica,sans-Serif" font-size="10.00" fill="white">case</text>
</g>
<!-- simplebench&#45;&gt;simplebench_case -->
<g id="edge1" class="edge">
<title>simplebench&#45;&gt;simplebench_case</title><style>.edge>path:hover{stroke-width:8}</style>
<path fill="none" stroke="black" d="M117.15,-335.18C115.69,-319.49 123.06,-303.9 131.69,-291.42"/>
<polygon fill="blue" stroke="black" points="134.25,-293.84 137.49,-283.75 128.67,-289.61 134.25,-293.84"/>
</g>
<!-- simplebench_cli -->
<g id="node3" class="node">
<title>simplebench_cli</title><style>.edge>path:hover{stroke-width:8}</style>
<polygon fill="blue" stroke="black" points="238.02,-426.18 164.27,-426.18 164.27,-390.18 238.02,-390.18 238.02,-426.18"/>
<text xml:space="preserve" text-anchor="middle" x="201.15" y="-409.93" font-family="Helvetica,sans-Serif" font-size="10.00" fill="white">simplebench.</text>
<text xml:space="preserve" text-anchor="middle" x="201.15" y="-398.68" font-family="Helvetica,sans-Serif" font-size="10.00" fill="white">cli</text>
</g>
<!-- simplebench&#45;&gt;simplebench_cli -->
<g id="edge6" class="edge">
<title>simplebench&#45;&gt;simplebench_cli</title><style>.edge>path:hover{stroke-width:8}</style>
<path fill="none" stroke="black" d="M201.15,-461.87C201.15,-454.58 201.15,-445.9 201.15,-437.71"/>
<polygon fill="blue" stroke="black" points="204.65,-437.79 201.15,-427.79 197.65,-437.79 204.65,-437.79"/>
</g>
<!-- simplebench_decorators -->
<g id="node4" class="node">
<title>simplebench_decorators</title><style>.edge>path:hover{stroke-width:8}</style>
<polygon fill="blue" stroke="black" points="257.02,-354.18 183.27,-354.18 183.27,-318.18 257.02,-318.18 257.02,-354.18"/>
<text xml:space="preserve" text-anchor="middle" x="220.15" y="-337.93" font-family="Helvetica,sans-Serif" font-size="10.00" fill="white">simplebench.</text>
<text xml:space="preserve" text-anchor="middle" x="220.15" y="-326.68" font-family="Helvetica,sans-Serif" font-size="10.00" fill="white">decorators</text>
</g>
<!-- simplebench&#45;&gt;simplebench_decorators -->
<g id="edge7" class="edge">
<title>simplebench&#45;&gt;simplebench_decorators</title><style>.edge>path:hover{stroke-width:8}</style>
<path fill="none" stroke="black" d="M334.15,-407.18C341.02,-373.72 302.36,-355.6 268.23,-346.24"/>
<polygon fill="blue" stroke="black" points="269.39,-342.92 258.83,-343.87 267.67,-349.71 269.39,-342.92"/>
<path fill="none" stroke="black" d="M237,-474.79C273.38,-468.03 325.54,-451.1 334.15,-409.18"/>
</g>
<!-- simplebench_iteration -->
<g id="node5" class="node">
<title>simplebench_iteration</title><style>.edge>path:hover{stroke-width:8}</style>
<ellipse fill="#f91010" stroke="black" cx="269.15" cy="-21.57" rx="52.15" ry="21.57"/>
<text xml:space="preserve" text-anchor="middle" x="269.15" y="-23.32" font-family="Helvetica,sans-Serif" font-size="10.00" fill="#ffffff">simplebench.</text>
<text xml:space="preserve" text-anchor="middle" x="269.15" y="-12.07" font-family="Helvetica,sans-Serif" font-size="10.00" fill="#ffffff">iteration</text>
</g>
<!-- simplebench&#45;&gt;simplebench_iteration -->
<g id="edge9" class="edge">
<title>simplebench&#45;&gt;simplebench_iteration</title><style>.edge>path:hover{stroke-width:8}</style>
<path fill="none" stroke="black" d="M334.15,-96.13C324.34,-89.6 306.14,-68.64 291.5,-50.75"/>
<polygon fill="blue" stroke="black" points="294.61,-49.04 285.59,-43.47 289.17,-53.45 294.61,-49.04"/>
<path fill="none" stroke="black" d="M334.15,-179.66C327.46,-144.05 364.3,-118.22 334.15,-98.13"/>
</g>
<!-- simplebench_reporters -->
<g id="node6" class="node">
<title>simplebench_reporters</title><style>.edge>path:hover{stroke-width:8}</style>
<ellipse fill="#e72222" stroke="black" cx="52.15" cy="-21.57" rx="52.15" ry="21.57"/>
<text xml:space="preserve" text-anchor="middle" x="52.15" y="-23.32" font-family="Helvetica,sans-Serif" font-size="10.00" fill="#ffffff">simplebench.</text>
<text xml:space="preserve" text-anchor="middle" x="52.15" y="-12.07" font-family="Helvetica,sans-Serif" font-size="10.00" fill="#ffffff">reporters</text>
</g>
<!-- simplebench&#45;&gt;simplebench_reporters -->
<g id="edge16" class="edge">
<title>simplebench&#45;&gt;simplebench_reporters</title><style>.edge>path:hover{stroke-width:8}</style>
<path fill="none" stroke="black" d="M52.15,-179.66C45.65,-145.04 16.88,-148.68 6.15,-115.13 1.27,-99.89 0.79,-94.21 6.15,-79.13 9.89,-68.6 16.53,-58.6 23.61,-50.02"/>
<polygon fill="blue" stroke="black" points="26.03,-52.57 30.06,-42.77 20.8,-47.92 26.03,-52.57"/>
<path fill="none" stroke="black" d="M117.15,-335.18C114.74,-309.24 102.52,-306.07 92.15,-282.18 72.99,-238.07 58.84,-229.27 52.15,-181.66"/>
<path fill="none" stroke="black" d="M182.3,-461.86C157.31,-436.89 116.42,-388.16 117.15,-337.18"/>
</g>
<!-- simplebench_results -->
<g id="node7" class="node">
<title>simplebench_results</title><style>.edge>path:hover{stroke-width:8}</style>
<polygon fill="blue" stroke="black" points="306.02,-115.13 232.27,-115.13 232.27,-79.13 306.02,-79.13 306.02,-115.13"/>
<text xml:space="preserve" text-anchor="middle" x="269.15" y="-98.88" font-family="Helvetica,sans-Serif" font-size="10.00" fill="white">simplebench.</text>
<text xml:space="preserve" text-anchor="middle" x="269.15" y="-87.63" font-family="Helvetica,sans-Serif" font-size="10.00" fill="white">results</text>
</g>
<!-- simplebench&#45;&gt;simplebench_results -->
<g id="edge20" class="edge">
<title>simplebench&#45;&gt;simplebench_results</title><style>.edge>path:hover{stroke-width:8}</style>
<path fill="none" stroke="black" d="M334.15,-179.66C329.98,-157.44 314.41,-137.5 299.56,-122.9"/>
<polygon fill="blue" stroke="black" points="302.27,-120.64 292.56,-116.39 297.5,-125.77 302.27,-120.64"/>
<path fill="none" stroke="black" d="M334.15,-263.18C325.33,-228.03 340.83,-217.27 334.15,-181.66"/>
</g>
<!-- simplebench_runners -->
<g id="node8" class="node">
<title>simplebench_runners</title><style>.edge>path:hover{stroke-width:8}</style>
<polygon fill="blue" stroke="black" points="306.02,-198.66 232.27,-198.66 232.27,-162.66 306.02,-162.66 306.02,-198.66"/>
<text xml:space="preserve" text-anchor="middle" x="269.15" y="-182.41" font-family="Helvetica,sans-Serif" font-size="10.00" fill="white">simplebench.</text>
<text xml:space="preserve" text-anchor="middle" x="269.15" y="-171.16" font-family="Helvetica,sans-Serif" font-size="10.00" fill="white">runners</text>
</g>
<!-- simplebench&#45;&gt;simplebench_runners -->
<g id="edge23" class="edge">
<title>simplebench&#45;&gt;simplebench_runners</title><style>.edge>path:hover{stroke-width:8}</style>
<path fill="none" stroke="black" d="M334.15,-407.18C346.84,-345.36 345.79,-327.2 334.15,-265.18"/>
<path fill="none" stroke="black" d="M334.15,-263.18C328.65,-241.25 313.05,-221.32 298.51,-206.65"/>
<polygon fill="blue" stroke="black" points="301.34,-204.52 291.7,-200.11 296.49,-209.57 301.34,-204.52"/>
</g>
<!-- simplebench_session -->
<g id="node9" class="node">
<title>simplebench_session</title><style>.edge>path:hover{stroke-width:8}</style>
<polygon fill="blue" stroke="black" points="89.02,-115.13 15.27,-115.13 15.27,-79.13 89.02,-79.13 89.02,-115.13"/>
<text xml:space="preserve" text-anchor="middle" x="52.15" y="-98.88" font-family="Helvetica,sans-Serif" font-size="10.00" fill="white">simplebench.</text>
<text xml:space="preserve" text-anchor="middle" x="52.15" y="-87.63" font-family="Helvetica,sans-Serif" font-size="10.00" fill="white">session</text>
</g>
<!-- simplebench&#45;&gt;simplebench_session -->
<g id="edge27" class="edge">
<title>simplebench&#45;&gt;simplebench_session</title><style>.edge>path:hover{stroke-width:8}</style>
<path fill="none" stroke="black" d="M52.15,-179.66C48.88,-162.25 48.81,-142.39 49.59,-126.63"/>
<polygon fill="blue" stroke="black" points="53.06,-127.2 50.21,-116.99 46.07,-126.74 53.06,-127.2"/>
</g>
<!-- simplebench_case&#45;&gt;simplebench_reporters -->
<g id="edge17" class="edge">
<title>simplebench_case&#45;&gt;simplebench_reporters</title><style>.edge>path:hover{stroke-width:8}</style>
<path fill="none" stroke="black" d="M155.43,-245.83C156.17,-228.99 158.59,-202.91 166.15,-181.66"/>
<path fill="none" stroke="black" d="M166.15,-96.13C149.7,-72.33 122.8,-54.43 99.25,-42.25"/>
<polygon fill="blue" stroke="black" points="100.94,-39.18 90.42,-37.89 97.84,-45.46 100.94,-39.18"/>
<path fill="none" stroke="black" d="M166.15,-179.66C178.29,-145.52 186.74,-127.94 166.15,-98.13"/>
</g>
<!-- simplebench_case&#45;&gt;simplebench_results -->
<g id="edge21" class="edge">
<title>simplebench_case&#45;&gt;simplebench_results</title><style>.edge>path:hover{stroke-width:8}</style>
<path fill="none" stroke="black" d="M166.15,-179.66C175.54,-153.26 199.63,-133.43 222.15,-119.94"/>
<polygon fill="blue" stroke="black" points="223.7,-123.08 230.67,-115.11 220.25,-116.99 223.7,-123.08"/>
</g>
<!-- simplebench_case&#45;&gt;simplebench_runners -->
<g id="edge24" class="edge">
<title>simplebench_case&#45;&gt;simplebench_runners</title><style>.edge>path:hover{stroke-width:8}</style>
<path fill="none" stroke="black" d="M188.61,-239.25C203.36,-228.7 220.66,-216.33 235.44,-205.76"/>
<polygon fill="blue" stroke="black" points="186.93,-236.14 180.84,-244.81 191.01,-241.84 186.93,-236.14"/>
<polygon fill="blue" stroke="black" points="237.4,-208.66 243.5,-200 233.33,-202.96 237.4,-208.66"/>
</g>
<!-- simplebench_case&#45;&gt;simplebench_session -->
<g id="edge28" class="edge">
<title>simplebench_case&#45;&gt;simplebench_session</title><style>.edge>path:hover{stroke-width:8}</style>
<path fill="none" stroke="black" d="M145.56,-235.23C136.76,-211.67 122.34,-177.63 104.15,-151.13 97.42,-141.33 88.79,-131.71 80.5,-123.41"/>
<polygon fill="blue" stroke="black" points="142.2,-236.25 148.9,-244.46 148.79,-233.87 142.2,-236.25"/>
<polygon fill="blue" stroke="black" points="83.12,-121.08 73.5,-116.65 78.26,-126.12 83.12,-121.08"/>
</g>
<!-- simplebench_cli&#45;&gt;simplebench_case -->
<g id="edge2" class="edge">
<title>simplebench_cli&#45;&gt;simplebench_case</title><style>.edge>path:hover{stroke-width:8}</style>
<path fill="none" stroke="black" d="M155.15,-335.18C148.35,-322.61 147.79,-306.83 149.18,-293.43"/>
<polygon fill="blue" stroke="black" points="152.59,-294.31 150.58,-283.9 145.66,-293.29 152.59,-294.31"/>
</g>
<!-- simplebench_cli&#45;&gt;simplebench_decorators -->
<g id="edge8" class="edge">
<title>simplebench_cli&#45;&gt;simplebench_decorators</title><style>.edge>path:hover{stroke-width:8}</style>
<path fill="none" stroke="black" d="M205.85,-389.87C207.87,-382.41 210.29,-373.5 212.56,-365.14"/>
<polygon fill="blue" stroke="black" points="215.87,-366.31 215.11,-355.74 209.11,-364.48 215.87,-366.31"/>
</g>
<!-- simplebench_cli&#45;&gt;simplebench_session -->
<g id="edge29" class="edge">
<title>simplebench_cli&#45;&gt;simplebench_session</title><style>.edge>path:hover{stroke-width:8}</style>
<path fill="none" stroke="black" d="M188.57,-389.85C178.8,-375.99 165.26,-355.85 155.15,-337.18"/>
<path fill="none" stroke="black" d="M155.15,-335.18C140.3,-307.75 124.31,-309.44 109.15,-282.18 101.45,-268.34 73.95,-174.25 60.16,-126.22"/>
<polygon fill="blue" stroke="black" points="63.58,-125.46 57.46,-116.81 56.85,-127.38 63.58,-125.46"/>
</g>
<!-- simplebench_decorators&#45;&gt;simplebench_case -->
<g id="edge3" class="edge">
<title>simplebench_decorators&#45;&gt;simplebench_case</title><style>.edge>path:hover{stroke-width:8}</style>
<path fill="none" stroke="black" d="M204.08,-317.87C196.45,-309.65 187.17,-299.66 178.75,-290.6"/>
<polygon fill="blue" stroke="black" points="181.43,-288.34 172.06,-283.39 176.3,-293.1 181.43,-288.34"/>
</g>
<!-- simplebench_decorators&#45;&gt;simplebench_reporters -->
<g id="edge18" class="edge">
<title>simplebench_decorators&#45;&gt;simplebench_reporters</title><style>.edge>path:hover{stroke-width:8}</style>
<path fill="none" stroke="black" d="M220.15,-263.18C227.66,-186.36 210.02,-161.63 166.15,-98.13"/>
<path fill="none" stroke="black" d="M219.02,-317.85C218.37,-303.64 218.04,-283.04 220.15,-265.18"/>
</g>
<!-- simplebench_decorators&#45;&gt;simplebench_runners -->
<g id="edge25" class="edge">
<title>simplebench_decorators&#45;&gt;simplebench_runners</title><style>.edge>path:hover{stroke-width:8}</style>
<path fill="none" stroke="black" d="M220.15,-263.18C222.16,-242.63 233.9,-222.7 245.38,-207.69"/>
<polygon fill="blue" stroke="black" points="247.88,-210.17 251.45,-200.2 242.44,-205.76 247.88,-210.17"/>
</g>
<!-- simplebench_results&#45;&gt;simplebench_iteration -->
<g id="edge10" class="edge">
<title>simplebench_results&#45;&gt;simplebench_iteration</title><style>.edge>path:hover{stroke-width:8}</style>
<path fill="none" stroke="black" d="M269.15,-78.7C269.15,-71.54 269.15,-63.01 269.15,-54.79"/>
<polygon fill="blue" stroke="black" points="272.65,-55.06 269.15,-45.06 265.65,-55.06 272.65,-55.06"/>
</g>
<!-- simplebench_runners&#45;&gt;simplebench_iteration -->
<g id="edge11" class="edge">
<title>simplebench_runners&#45;&gt;simplebench_iteration</title><style>.edge>path:hover{stroke-width:8}</style>
<path fill="none" stroke="black" d="M252.06,-162.16C241.48,-150.05 228.85,-132.95 223.15,-115.13 218.27,-99.89 217.79,-94.21 223.15,-79.13 226.89,-68.6 233.53,-58.6 240.61,-50.02"/>
<polygon fill="blue" stroke="black" points="243.03,-52.57 247.06,-42.77 237.8,-47.92 243.03,-52.57"/>
</g>
<!-- simplebench_runners&#45;&gt;simplebench_results -->
<g id="edge22" class="edge">
<title>simplebench_runners&#45;&gt;simplebench_results</title><style>.edge>path:hover{stroke-width:8}</style>
<path fill="none" stroke="black" d="M269.15,-162.37C269.15,-151.99 269.15,-138.54 269.15,-126.62"/>
<polygon fill="blue" stroke="black" points="272.65,-126.91 269.15,-116.91 265.65,-126.91 272.65,-126.91"/>
</g>
<!-- simplebench_runners&#45;&gt;simplebench_session -->
<g id="edge30" class="edge">
<title>simplebench_runners&#45;&gt;simplebench_session</title><style>.edge>path:hover{stroke-width:8}</style>
<path fill="none" stroke="black" d="M221.09,-161.6C185.07,-148.07 136.02,-129.64 100.04,-116.13"/>
<polygon fill="blue" stroke="black" points="219.84,-164.87 230.43,-165.11 222.3,-158.32 219.84,-164.87"/>
<polygon fill="blue" stroke="black" points="101.34,-112.87 90.75,-112.63 98.88,-119.43 101.34,-112.87"/>
</g>
<!-- simplebench_session&#45;&gt;simplebench_reporters -->
<g id="edge19" class="edge">
<title>simplebench_session&#45;&gt;simplebench_reporters</title><style>.edge>path:hover{stroke-width:8}</style>
<path fill="none" stroke="black" d="M52.15,-78.7C52.15,-71.54 52.15,-63.01 52.15,-54.79"/>
<polygon fill="blue" stroke="black" points="55.65,-55.06 52.15,-45.06 48.65,-55.06 55.65,-55.06"/>
</g>
<!-- simplebench_stats_memory_usage -->
<g id="node10" class="node">
<title>simplebench_stats_memory_usage</title><style>.edge>path:hover{stroke-width:8}</style>
<ellipse fill="#ac4949" stroke="black" cx="421.15" cy="-180.66" rx="58.51" ry="29.52"/>
<text xml:space="preserve" text-anchor="middle" x="421.15" y="-188.03" font-family="Helvetica,sans-Serif" font-size="10.00" fill="#ffffff">simplebench.</text>
<text xml:space="preserve" text-anchor="middle" x="421.15" y="-176.78" font-family="Helvetica,sans-Serif" font-size="10.00" fill="#ffffff">stats.</text>
<text xml:space="preserve" text-anchor="middle" x="421.15" y="-165.53" font-family="Helvetica,sans-Serif" font-size="10.00" fill="#ffffff">memory_usage</text>
</g>
<!-- simplebench_stats_memory_usage&#45;&gt;simplebench_iteration -->
<g id="edge12" class="edge">
<title>simplebench_stats_memory_usage&#45;&gt;simplebench_iteration</title><style>.edge>path:hover{stroke-width:8}</style>
<path fill="none" stroke="black" d="M397.53,-153.38C381.01,-136.09 357.75,-113.85 334.15,-98.13"/>
</g>
<!-- simplebench_stats_operation_timings -->
<g id="node11" class="node">
<title>simplebench_stats_operation_timings</title><style>.edge>path:hover{stroke-width:8}</style>
<ellipse fill="#ac4949" stroke="black" cx="563.15" cy="-180.66" rx="65.41" ry="29.52"/>
<text xml:space="preserve" text-anchor="middle" x="563.15" y="-188.03" font-family="Helvetica,sans-Serif" font-size="10.00" fill="#ffffff">simplebench.</text>
<text xml:space="preserve" text-anchor="middle" x="563.15" y="-176.78" font-family="Helvetica,sans-Serif" font-size="10.00" fill="#ffffff">stats.</text>
<text xml:space="preserve" text-anchor="middle" x="563.15" y="-165.53" font-family="Helvetica,sans-Serif" font-size="10.00" fill="#ffffff">operation_timings</text>
</g>
<!-- simplebench_stats_operation_timings&#45;&gt;simplebench_iteration -->
<g id="edge13" class="edge">
<title>simplebench_stats_operation_timings&#45;&gt;simplebench_iteration</title><style>.edge>path:hover{stroke-width:8}</style>
<path fill="none" stroke="black" d="M514.29,-160.52C505.92,-157.33 497.3,-154.1 489.15,-151.13 420.73,-126.26 394.74,-138.49 334.15,-98.13"/>
</g>
<!-- simplebench_stats_operations_per_interval -->
<g id="node12" class="node">
<title>simplebench_stats_operations_per_interval</title><style>.edge>path:hover{stroke-width:8}</style>
<ellipse fill="#ac4949" stroke="black" cx="729.15" cy="-180.66" rx="82.38" ry="29.52"/>
<text xml:space="preserve" text-anchor="middle" x="729.15" y="-188.03" font-family="Helvetica,sans-Serif" font-size="10.00" fill="#ffffff">simplebench.</text>
<text xml:space="preserve" text-anchor="middle" x="729.15" y="-176.78" font-family="Helvetica,sans-Serif" font-size="10.00" fill="#ffffff">stats.</text>
<text xml:space="preserve" text-anchor="middle" x="729.15" y="-165.53" font-family="Helvetica,sans-Serif" font-size="10.00" fill="#ffffff">operations_per_interval</text>
</g>
<!-- simplebench_stats_operations_per_interval&#45;&gt;simplebench_iteration -->
<g id="edge14" class="edge">
<title>simplebench_stats_operations_per_interval&#45;&gt;simplebench_iteration</title><style>.edge>path:hover{stroke-width:8}</style>
<path fill="none" stroke="black" d="M669.58,-159.98C658.85,-156.78 647.71,-153.68 637.15,-151.13 504.26,-119.05 447.93,-173.92 334.15,-98.13"/>
</g>
<!-- simplebench_stats_peak_memory_usage -->
<g id="node13" class="node">
<title>simplebench_stats_peak_memory_usage</title><style>.edge>path:hover{stroke-width:8}</style>
<ellipse fill="#ac4949" stroke="black" cx="906.15" cy="-180.66" rx="77.07" ry="29.52"/>
<text xml:space="preserve" text-anchor="middle" x="906.15" y="-188.03" font-family="Helvetica,sans-Serif" font-size="10.00" fill="#ffffff">simplebench.</text>
<text xml:space="preserve" text-anchor="middle" x="906.15" y="-176.78" font-family="Helvetica,sans-Serif" font-size="10.00" fill="#ffffff">stats.</text>
<text xml:space="preserve" text-anchor="middle" x="906.15" y="-165.53" font-family="Helvetica,sans-Serif" font-size="10.00" fill="#ffffff">peak_memory_usage</text>
</g>
<!-- simplebench_stats_peak_memory_usage&#45;&gt;simplebench_iteration -->
<g id="edge15" class="edge">
<title>simplebench_stats_peak_memory_usage&#45;&gt;simplebench_iteration</title><style>.edge>path:hover{stroke-width:8}</style>
<path fill="none" stroke="black" d="M851.58,-159.64C841.25,-156.4 830.45,-153.38 820.15,-151.13 714,-128.02 424.57,-158.36 334.15,-98.13"/>
</g>
</g>
</svg>
